<?xml version="1.0" encoding="utf-8"?>
<!-- Generator: Adobe Illustrator 27.5.0, SVG Export Plug-In . SVG Version: 6.00 Build 0)  -->
<svg version="1.1" xmlns="http://www.w3.org/2000/svg" xmlns:xlink="http://www.w3.org/1999/xlink" x="0px" y="0px"
	 viewBox="0 0 500 500" style="enable-background:new 0 0 500 500;" xml:space="preserve">
<g id="BACKGROUND">
	<rect style="fill:#FFFFFF;" width="500" height="500"/>
</g>
<g id="OBJECTS">
	<g>
		<path style="fill:#C3EDEB;" d="M420.729,414.755H55.742c0,0-53.663-217.148,22.63-289.048c31.2-29.403,63.334-14.529,90.42,13.327
			c34.327,35.301,84.492,27.751,111.281-17.314c18.709-31.472,56.168-48.347,87.798-33.95
			C449.498,124.924,504.709,318.075,420.729,414.755z"/>
		<g>
			<g>
				<rect x="232.104" y="104.538" style="fill:#A1CAC7;" width="61.493" height="61.492"/>
				<rect x="238.6" y="111.28" style="fill:#7DAFAA;" width="48.501" height="48.501"/>
			</g>
			<g>
				<rect x="232.104" y="174.144" style="fill:#A1CAC7;" width="61.493" height="61.493"/>
				<rect x="238.6" y="180.885" style="fill:#7DAFAA;" width="48.501" height="48.501"/>
			</g>
		</g>
		<g>
			<g>
				<rect x="394.723" y="172.572" style="fill:#A1CAC7;" width="61.492" height="61.493"/>
				<rect x="401.218" y="179.314" style="fill:#7DAFAA;" width="48.501" height="48.501"/>
			</g>
			<g>
				<rect x="394.723" y="242.178" style="fill:#A1CAC7;" width="61.492" height="61.493"/>
				<rect x="401.218" y="248.92" style="fill:#7DAFAA;" width="48.501" height="48.501"/>
			</g>
		</g>
	</g>
	<g>
		<g>
			<g>
				<path style="fill:#5E3E1B;" d="M358.498,122.381c0,0,34.305,5.899,38.861,43.688c4.328,35.896,43.972,88.633,9.081,133.978
					H299.199c0,0-27.263-26.847-15.544-65.993c11.719-39.147,6.392-37.855,6.392-68.832
					C290.047,136.722,328.134,102.858,358.498,122.381z"/>
				<g>
					<path style="fill:#FAF9FF;" d="M322.997,254.282l-59.736,30.95l-42.198-55.461l-19.231,12.118c0,0,37.387,71.471,49.555,75.427
						c12.169,3.957,69.589-23.507,69.589-23.507L322.997,254.282z"/>
					<path style="fill:#EEC4BD;" d="M212.119,240.019c3.917-1.909,6.875-5.458,7.75-9.726c0.346-1.687,0.378-3.464-0.223-5.116
						c-2.06-5.665,1.605-12.594-3.764-16.231c-5.369-3.637-5.729,6.062-5.2,10.721c0.53,4.659-5.315,5.48-10.264-1.933
						c-4.948-7.413-10.297-22.3-14.068-20.597c-3.771,1.703-0.633,11.461,8.863,23.171c0,0-7.003-8.265-10.053-15.163
						c-3.049-6.897-5.5-7.492-7.152-6.667c-1.652,0.825,0.786,12.936,12.264,26.733c0,0-9.16-10.427-12.278-18.968
						c0,0-1.556-2.76-3.352-0.634c-2.191,2.593,8.673,23.015,13.51,27.11c3.061,2.591,6.897,5.045,10.158,6.943
						c4.154,2.419,9.244,2.58,13.565,0.474L212.119,240.019z"/>
				</g>
				<path style="fill:none;stroke:#162821;stroke-width:2.8188;stroke-miterlimit:10;" d="M320.234,249.476
					c5.79-7.583,14.625-12.97,28.039-12.973c16.963-0.003,24.507,5.923,26.371,14.492"/>
				<g>
					<path style="fill:#EEC4BD;" d="M328.579,224.694l1.644,22.241l-10.153,9.09c0,0,7.156,28.526,52.508-2.127l-9.283-10.154
						v-25.045L328.579,224.694z"/>
					<path style="opacity:0.69;fill:#E4928E;" d="M333.662,243.626c-1.325-0.398-2.597-1.006-3.814-1.775l-1.268-17.157
						l34.716-5.995v7.382C356.842,236.233,346.104,246.737,333.662,243.626z"/>
					<path style="fill:#EEC4BD;" d="M324.413,127.378c-11.676,6.097-21.209,19.824-20.027,50.418c0,0-15.519,30.373,17.981,51.583
						c3.597,2.278,7.942,3.053,12.183,2.684c12.681-1.105,40.014-7.21,48.983-38.822c7.806-27.517,0.28-43.485-12.626-57.219
						C358.901,123.244,339.955,119.262,324.413,127.378z"/>
					<path style="opacity:0.69;fill:#E4928E;" d="M348.252,199.492c-1.399,4.011,0.718,8.398,4.729,9.797
						c4.011,1.399,8.398-0.718,9.797-4.729c1.399-4.011-0.718-8.397-4.729-9.797C354.038,193.364,349.651,195.481,348.252,199.492z"
						/>
					<path style="opacity:0.69;fill:#E4928E;" d="M305.276,195.8c-1.399,4.011,0.718,8.398,4.729,9.797
						c4.011,1.399,8.398-0.718,9.797-4.729c1.399-4.011-0.718-8.397-4.729-9.797C311.062,189.671,306.676,191.788,305.276,195.8z"/>
					<path style="opacity:0.56;fill:#E4928E;" d="M329.513,215.42c-0.125,1.371,1.288,2.62,3.157,2.791
						c1.869,0.171,3.486-0.801,3.611-2.172c0.125-1.371-1.288-2.62-3.157-2.791C331.255,213.077,329.639,214.05,329.513,215.42z"/>
					<g>
						<path style="opacity:0.56;fill:#E4928E;" d="M324.741,193.436c-0.245,2.68,2.519,5.124,6.174,5.459
							c3.655,0.334,6.817-1.567,7.062-4.247c0.245-2.68-2.519-5.124-6.174-5.459C328.148,188.855,324.986,190.756,324.741,193.436z"
							/>
						<path style="fill:#F6E7E5;" d="M327.243,192.21c0.033,0.892,1.444,1.563,3.153,1.5c1.708-0.063,3.067-0.837,3.034-1.729
							c-0.033-0.892-1.445-1.563-3.153-1.5C328.568,190.544,327.21,191.318,327.243,192.21z"/>
						<path style="fill:#CA7676;" d="M333.775,197.647c-0.04,0.438,0.59,0.853,1.408,0.928c0.818,0.075,1.513-0.219,1.553-0.657
							c0.04-0.438-0.591-0.853-1.408-0.928C334.511,196.915,333.815,197.209,333.775,197.647z"/>
						<path style="fill:#CA7676;" d="M325.939,193.754c-0.275-3.585,2.717-4.284,2.717-4.284s1.213-6.357,0.774-6.397
							c-0.439-0.04-1.247,5.718-1.247,5.718s-3.725,1.848-3.62,4.837c0.134,3.813,4.234,5.154,6.687,5.378
							C331.25,199.006,326.214,197.339,325.939,193.754z"/>
					</g>
					<g>
						<path style="fill:#162821;" d="M313.232,182.221c0.05,3.256,1.913,5.868,4.161,5.834c2.248-0.035,4.029-2.702,3.979-5.959
							c-0.05-3.256-1.913-5.868-4.16-5.834C314.963,176.296,313.182,178.964,313.232,182.221z"/>
					</g>
					<path style="fill:#CA7676;" d="M320.983,199.797c0,0,0.978,7.225,10.57,7.787c10.405,0.61,13.324-7.976,13.324-7.976
						s-1.601,10.131-13.219,9.324C319.399,208.079,320.983,199.797,320.983,199.797z"/>
					<path style="fill:#162821;" d="M307.507,169.057c0.373,2.305,2.809,1.132,7.205,0.421c4.396-0.711,9.086-0.69,8.714-2.995
						c-0.373-2.305-4.238-3.597-8.634-2.886C310.396,164.308,307.134,166.753,307.507,169.057z"/>
					<path style="fill:#162821;" d="M359.365,171.487c-0.612,2.253-2.912,0.831-7.209-0.337c-4.297-1.168-8.964-1.639-8.352-3.892
						c0.612-2.253,4.592-3.132,8.889-1.964C356.99,166.462,359.977,169.234,359.365,171.487z"/>
					<path style="fill:#162821;" d="M315.129,180.39c0,0-2.468-0.819-3.55-2.134c-1.99-2.419-2.773,1.604-0.887,2.883
						c1.886,1.279,4.77,0.493,4.77,0.493L315.129,180.39z"/>
					<g>
						<g>
							<path style="fill:#162821;" d="M353.019,183.391c-0.059,3.256-1.929,5.863-4.177,5.822c-2.248-0.041-4.022-2.714-3.963-5.97
								c0.059-3.256,1.929-5.863,4.177-5.822C351.304,177.462,353.078,180.134,353.019,183.391z"/>
						</g>
						<path style="fill:#162821;" d="M350.658,182.957c0,0,2.792-0.926,4.016-2.415c2.251-2.737,3.137,1.815,1.004,3.262
							c-2.134,1.447-5.397,0.558-5.397,0.558L350.658,182.957z"/>
					</g>
					<path style="fill:#EEC4BD;" d="M377.181,189.982c0,0,13.42-20.458,22.685-7.004c9.265,13.454-9.9,34.415-24.37,15.494
						L377.181,189.982z"/>
					<path style="opacity:0.69;fill:#E4928E;" d="M380.583,193.861c0.226-1.139,0.711-2.209,1.431-3.121
						c2.555-3.235,8.99-9.988,13.75-3.075c5.188,7.533-3.229,18.658-11.703,13.996C381.315,200.15,379.974,196.934,380.583,193.861
						L380.583,193.861z"/>
					<path style="fill:#FAF9FF;" d="M304.386,177.796c0,0-18.365,29.964,17.981,51.583
						C322.367,229.379,291.098,211.594,304.386,177.796z"/>
					<polygon style="fill:#CA7676;" points="363.395,221.712 363.295,243.744 370.199,251.295 361.926,244.182 361.926,222.263 
											"/>
					<path style="fill:#CA7676;" d="M379.869,202.909c0,0-6.817,23.461-38.202,28.118
						C341.668,231.027,369.675,223.474,379.869,202.909z"/>
				</g>
				<path style="fill:#7BA3F9;" d="M320.07,256.025c0,0-33.529,19.947-20.323,78.495l-9.7,85.679h89.822l0.569-160.924l-7.86-5.377
					c0,0-29.17,12.39-38.805,11.324C324.139,264.157,320.07,256.025,320.07,256.025z"/>
				<path style="fill:#5581D6;" d="M312.982,333.333c-4.812,0.507-9.486-0.293-13.915-2.013c0.212,1.055,0.435,2.119,0.679,3.2
					l-9.7,85.679h89.822l0.455-128.632C365.956,316.318,340.242,329.073,312.982,333.333z"/>
				<path style="fill:#FFFFFF;" d="M335.243,420.199c0,0,5.071-75.132,10.694-101.609c9.111-42.893,24.262-67.295,24.262-67.295l0,0
					c16.739,9.568,26.905,27.525,26.495,46.802l12.143,122.102H335.243z"/>
				<path style="fill:#EBEBEB;" d="M408.837,420.199l-6.056-60.893c-16.462,18.053-40.466,25.167-64.767,25.342
					c-1.701,19.702-2.771,35.551-2.771,35.551H408.837z"/>
				<path style="fill:#FFFFFF;" d="M320.07,256.025L320.07,256.025c-11.416,5.698-26.896,22.753-30.023,35.123
					c-3.097,12.254-3.067,23.642,0,44.323l-11.719,84.728h22.469L320.07,256.025z"/>
				<path style="fill:#EBEBEB;" d="M285.057,371.551l-6.729,48.648h22.469l4.998-42.573
					C298.601,376.37,291.584,374.464,285.057,371.551z"/>
				<path style="fill:#E6E6E6;" d="M370.199,251.295l14.401,20.319l-16.513,10.521l5.948,3.93l-25.761,22.412
					C348.273,308.478,347.818,276.586,370.199,251.295z"/>
				<path style="fill:#E6E6E6;" d="M314.173,306.258l5.897-50.232c0,0-9.38,1.917-20.323,7.421l10.162,10.654l-10.162,2.744
					C299.747,276.845,315.101,298.355,314.173,306.258z"/>
				<path style="fill:#5E3E1B;" d="M388.898,176.261c0,0-3.457,16.202-7.783,15.951c-4.326-0.252-18.957-35.035-19.189-56.788
					c0,0-10.538,11.377-34.683,15.72l10.749-12.352c0,0-18.083,17.237-33.147,18.298c0,0,4.437-45.934,43.428-37.752l12.496,5.451
					C360.768,124.79,391.067,139.238,388.898,176.261z"/>
				<path style="fill:none;stroke:#162821;stroke-width:2.8188;stroke-miterlimit:10;" d="M374.644,250.996
					c2.601,11.954-5.849,29.052-15.199,42.373"/>
				<path style="fill:none;stroke:#162821;stroke-width:2.8188;stroke-miterlimit:10;" d="M309.908,297.983
					c0,0-3.449-30.468,10.325-48.506"/>
				<path style="fill:none;stroke:#162821;stroke-width:2.8188;stroke-miterlimit:10;" d="M322.674,340.998l5.016-0.843
					c3.729-22.373,0.989-44.16-17.782-42.171c-24.301,2.575-5.301,44.735-5.301,44.735l4.917-0.788"/>
				<path style="fill:#162821;" d="M349.495,296.528c-1.435,3.83,0.507,8.099,4.338,9.534c3.83,1.435,8.099-0.508,9.533-4.338
					c1.435-3.831-0.507-8.099-4.338-9.534C355.198,290.755,350.929,292.697,349.495,296.528z"/>
				<ellipse style="fill:#162821;" cx="310.412" cy="340.931" rx="2.92" ry="5.46"/>
				<ellipse style="fill:#162821;" cx="322.265" cy="339.799" rx="2.92" ry="5.46"/>
				<g>
					<path style="fill:#FFFFFF;" d="M457.287,320.741c0,0-5.318-16.178-28.386-31.757l-22.769,12.583l21.57,19.174H457.287z"/>
					<g>
						
							<rect x="360.448" y="241.071" transform="matrix(0.996 0.0895 -0.0895 0.996 28.136 -34.2825)" style="fill:#BB9565;" width="71.452" height="110.773"/>
						
							<rect x="362.239" y="241.232" transform="matrix(0.996 0.0895 -0.0895 0.996 28.1571 -34.4416)" style="fill:#9C723D;" width="71.452" height="110.773"/>
					</g>
					<path style="fill:#EEC4BD;" d="M366.356,324.991c0,0,4.256,2.934,22.396-3.735c18.14-6.669,56.822-14.139,67.492-1.867
						c10.671,12.271-24.967,37.615-89.888,23.476V324.991z"/>
					<path style="fill:#EEC4BD;" d="M370.878,326.068c0,0,0.89-7.244-3.868-9.555c-7.603-3.693-4.202-13.531-6.991-12.616
						c-2.846,0.934-3.547,6.287-0.212,14.957c0,0-3.735-10.004-7.47-8.537s-16.534,28.498,14.018,32.546L370.878,326.068z"/>
					
						<rect x="390.137" y="236.103" transform="matrix(0.996 0.0895 -0.0895 0.996 23.2962 -35.1939)" style="fill:#FFFFFF;" width="27.549" height="11.909"/>
					<path style="fill:#FFFFFF;" d="M456.244,319.388c-9.929-11.419-44.103-5.744-63.421,0.473
						c4.002,8.301,5.093,17.91,4.767,27.074C442.307,348.548,465.052,329.517,456.244,319.388z"/>
				</g>
			</g>
			<g>
				<path style="fill:#2E4A80;" d="M251.868,366.533c0,0,4.617,30.648-1.953,53.353h-68.69l-3.306-47.12L251.868,366.533z"/>
				<path style="fill:#1C3255;" d="M253.116,379.504c-0.462-7.737-1.248-12.971-1.248-12.971l-73.949,6.233l1.374,19.585
					C204.785,395.894,230.843,392.667,253.116,379.504z"/>
				<path style="fill:#2E4A80;" d="M220.617,200.926c0,0-47.399-4.15-65.072,5.116C155.545,206.042,196.113,229.514,220.617,200.926
					z"/>
				<g>
					<path style="fill:#EEC4BD;" d="M208.161,173.289l-1.644,22.241l10.154,9.09c0,0-7.156,28.526-52.508-2.127l9.283-10.154
						v-25.045L208.161,173.289z"/>
					<path style="opacity:0.69;fill:#E4928E;" d="M203.078,192.221c1.325-0.398,2.597-1.006,3.814-1.775l1.268-17.157l-34.716-5.995
						v7.382C179.897,184.827,190.636,195.331,203.078,192.221z"/>
					<path style="fill:#EEC4BD;" d="M212.327,75.972c11.676,6.097,21.209,19.824,20.027,50.418c0,0,15.519,30.373-17.981,51.583
						c-3.597,2.278-7.942,3.053-12.183,2.684c-12.681-1.105-40.014-7.21-48.982-38.822c-7.806-27.517-0.28-43.485,12.626-57.219
						C177.839,71.838,196.785,67.857,212.327,75.972z"/>
					<path style="opacity:0.69;fill:#E4928E;" d="M188.488,148.087c1.399,4.011-0.718,8.398-4.729,9.797
						c-4.011,1.399-8.397-0.718-9.797-4.729c-1.399-4.011,0.718-8.397,4.729-9.797C182.702,141.958,187.089,144.076,188.488,148.087
						z"/>
					<path style="opacity:0.69;fill:#E4928E;" d="M231.463,144.394c1.399,4.011-0.718,8.398-4.729,9.797
						c-4.011,1.399-8.398-0.718-9.797-4.729c-1.399-4.011,0.718-8.398,4.729-9.797C225.678,138.265,230.064,140.383,231.463,144.394
						z"/>
					<path style="opacity:0.56;fill:#E4928E;" d="M207.227,164.014c0.125,1.371-1.288,2.62-3.157,2.791
						c-1.869,0.171-3.486-0.801-3.611-2.172c-0.125-1.371,1.288-2.62,3.157-2.791C205.484,161.671,207.101,162.644,207.227,164.014z
						"/>
					<g>
						<path style="fill:#162821;" d="M223.508,130.815c-0.05,3.256-1.913,5.868-4.161,5.834c-2.248-0.035-4.029-2.702-3.979-5.959
							c0.05-3.256,1.913-5.868,4.161-5.834C221.777,124.891,223.558,127.558,223.508,130.815z"/>
					</g>
					<path style="fill:#5E3E1B;" d="M228.119,118.747c-0.373,2.305-2.809,1.132-7.205,0.421c-4.396-0.711-9.087-0.69-8.714-2.995
						c0.373-2.305,4.238-3.597,8.634-2.886C225.23,113.999,228.491,116.443,228.119,118.747z"/>
					<path style="fill:#5E3E1B;" d="M179.457,121.121c0.612,2.253,2.912,0.831,7.209-0.337c4.297-1.168,8.964-1.639,8.352-3.892
						c-0.612-2.253-4.592-3.132-8.889-1.964C181.832,116.096,178.845,118.869,179.457,121.121z"/>
					<g>
						<g>
							<path style="fill:#162821;" d="M183.721,131.985c0.059,3.256,1.929,5.863,4.177,5.822c2.248-0.041,4.022-2.714,3.963-5.97
								c-0.059-3.256-1.929-5.863-4.177-5.822S183.662,128.729,183.721,131.985z"/>
						</g>
					</g>
					<path style="fill:#EEC4BD;" d="M159.558,138.576c0,0-13.42-20.458-22.685-7.004c-9.265,13.454,9.9,34.415,24.37,15.494
						L159.558,138.576z"/>
					<path style="opacity:0.69;fill:#E4928E;" d="M156.156,142.455c-0.226-1.139-0.711-2.209-1.431-3.121
						c-2.555-3.235-8.989-9.988-13.75-3.075c-5.188,7.533,3.229,18.658,11.703,13.996
						C155.424,148.744,156.766,145.529,156.156,142.455L156.156,142.455z"/>
					<path style="fill:#FAF9FF;" d="M232.353,126.39c0,0,18.365,29.964-17.981,51.583
						C214.373,177.973,245.642,160.189,232.353,126.39z"/>
					<polygon style="fill:#CA7676;" points="173.345,170.306 173.445,192.339 166.541,199.89 174.814,192.776 174.814,170.857 					
						"/>
					<path style="fill:#CA7676;" d="M156.871,151.503c0,0,6.817,23.461,38.202,28.118
						C195.072,179.621,167.065,172.069,156.871,151.503z"/>
					<path style="fill:#5E3E1B;" d="M207.461,146.99c0,0,5.254-2.821,9.111,2.173c3.857,4.993,7.504,0,7.504,0
						s-3.094,7.861-9.277,5.853c0,0-2.058,4.7-5.327,1.265c0,0-1.155,2.646-2.546,2.646c-1.391,0-2.414-2.38-2.414-2.38
						s-3.501,3.025-5.662,2.153c-2.161-0.872-1.804-3.369-1.804-3.369s-5.39,1.625-9.036-4.043c0,0,7.445,2.192,9.829-1.902
						C200.451,144.9,205.907,145.306,207.461,146.99z"/>
					<g>
						<path style="fill:#EEC4BD;" d="M213.545,141.358c0.245,2.68-2.519,5.124-6.174,5.459s-6.817-1.567-7.062-4.247
							c-0.245-2.68,2.519-5.124,6.174-5.459C210.138,136.776,213.299,138.678,213.545,141.358z"/>
						<path style="opacity:0.56;fill:#E4928E;" d="M213.545,141.358c0.245,2.68-2.519,5.124-6.174,5.459s-6.817-1.567-7.062-4.247
							c-0.245-2.68,2.519-5.124,6.174-5.459C210.138,136.776,213.299,138.678,213.545,141.358z"/>
						<path style="fill:#F6E7E5;" d="M211.043,140.132c-0.033,0.892-1.444,1.563-3.153,1.5s-3.067-0.837-3.034-1.729
							c0.033-0.892,1.444-1.563,3.153-1.5C209.717,138.466,211.076,139.24,211.043,140.132z"/>
						<path style="fill:#CA7676;" d="M204.51,145.569c0.04,0.438-0.59,0.853-1.408,0.928c-0.818,0.075-1.513-0.219-1.553-0.657
							c-0.04-0.438,0.59-0.853,1.408-0.928C203.775,144.837,204.47,145.131,204.51,145.569z"/>
						<path style="fill:#CA7676;" d="M212.347,141.676c0.275-3.585-2.717-4.284-2.717-4.284s-1.213-6.357-0.774-6.397
							c0.439-0.04,1.247,5.718,1.247,5.718s3.725,1.848,3.62,4.837c-0.134,3.813-4.234,5.154-6.687,5.378
							C207.036,146.928,212.072,145.26,212.347,141.676z"/>
					</g>
				</g>
				<path style="fill:#7BA3F9;" d="M163.086,197.423c0,0,16.549,18.426,33.01,16.251c16.461-2.175,24.521-12.748,24.521-12.748
					l15.326,4.591l13.795,106.434l11.364,55.468c0,0-58.953,28.921-104.231,5.346L163.086,197.423z"/>
				<path style="fill:#5585E0;" d="M250.647,316.391c-25.982,18.804-60.641,23.874-92.401,17.573l-1.376,38.802
					c45.278,23.574,104.231-5.346,104.231-5.346L250.647,316.391z"/>
				<path style="fill:#5E3E1B;" d="M144.751,126.99c0,0,5.063,10.251,12.12,10.083c7.057-0.169,20.491-11.089,19.101-45.181
					c0,0,15.874-16.652,34.409-9.791c18.535,6.861,21.724,30.561,21.724,30.561s11.322-35.419-15.598-49.446
					c-26.92-14.028-49.293,4.794-62.788,20.42C153.718,83.635,132.765,91.685,144.751,126.99z"/>
				<g>
					<path style="fill:#162821;" d="M112.531,114.957c0,0,37.395-9.454,53.966,33.13c2.324,5.974,3.425,12.348,3.506,18.757
						c0.099,7.835,0.81,20.384,3.989,29.731c4.972,14.62,34.707,25.184,15.981,52.255c0,0-14.383-4.608-18.467-9.402
						c0,0,8.168,11.719,13.495,16.158c0,0-20.248,17.812-65.184,16.009c-44.936-1.803-77.932-25.242-77.932-25.242
						s8.878-15.126,11.364-58.701C55.735,144.077,78.668,108.536,112.531,114.957z"/>
					<g>
						<path style="fill:#EEC4BD;" d="M136.972,225.14l-1.644,22.241l10.154,9.09c0,0-7.156,28.526-52.508-2.127l9.283-10.154
							v-25.045L136.972,225.14z"/>
						<path style="opacity:0.69;fill:#E4928E;" d="M131.889,244.071c1.325-0.397,2.597-1.006,3.814-1.775l1.268-17.157
							l-34.716-5.995v7.382C108.708,236.678,119.447,247.182,131.889,244.071z"/>
						<path style="fill:#EEC4BD;" d="M141.138,127.823c11.676,6.097,21.209,19.824,20.027,50.418c0,0,15.519,30.373-17.981,51.583
							c-3.597,2.278-7.942,3.053-12.183,2.684c-12.681-1.105-40.014-7.21-48.982-38.822c-7.806-27.517-0.28-43.485,12.626-57.22
							C106.65,123.689,125.596,119.708,141.138,127.823z"/>
						<path style="opacity:0.69;fill:#E4928E;" d="M117.299,199.938c1.399,4.011-0.718,8.398-4.729,9.797s-8.397-0.718-9.797-4.729
							c-1.399-4.011,0.718-8.398,4.729-9.797C111.513,193.809,115.9,195.926,117.299,199.938z"/>
						<path style="opacity:0.69;fill:#E4928E;" d="M160.274,196.245c1.399,4.011-0.718,8.398-4.729,9.797
							c-4.011,1.399-8.398-0.718-9.797-4.729c-1.399-4.011,0.718-8.397,4.729-9.797
							C154.489,190.116,158.875,192.234,160.274,196.245z"/>
						<path style="opacity:0.56;fill:#E4928E;" d="M136.038,215.865c0.125,1.371-1.288,2.62-3.157,2.791
							c-1.869,0.171-3.486-0.801-3.611-2.172c-0.125-1.371,1.288-2.62,3.157-2.791C134.296,213.522,135.912,214.495,136.038,215.865
							z"/>
						<g>
							<path style="opacity:0.56;fill:#E4928E;" d="M140.81,193.882c0.245,2.68-2.519,5.124-6.174,5.459
								c-3.655,0.334-6.817-1.567-7.062-4.247c-0.245-2.68,2.519-5.124,6.174-5.459C137.403,189.3,140.564,191.201,140.81,193.882z"
								/>
							<path style="fill:#F6E7E5;" d="M138.308,192.655c-0.033,0.892-1.445,1.563-3.153,1.5c-1.709-0.063-3.067-0.837-3.034-1.729
								c0.033-0.892,1.445-1.563,3.153-1.5C136.982,190.99,138.341,191.764,138.308,192.655z"/>
							<path style="fill:#CA7676;" d="M131.775,198.092c0.04,0.438-0.59,0.853-1.408,0.928c-0.818,0.075-1.513-0.219-1.553-0.657
								c-0.04-0.438,0.59-0.853,1.408-0.928C131.04,197.36,131.735,197.654,131.775,198.092z"/>
							<path style="fill:#CA7676;" d="M139.612,194.199c0.275-3.585-2.717-4.284-2.717-4.284s-1.213-6.357-0.774-6.397
								c0.439-0.04,1.247,5.718,1.247,5.718s3.725,1.848,3.62,4.837c-0.134,3.813-4.234,5.154-6.687,5.378
								C134.301,199.452,139.337,197.784,139.612,194.199z"/>
						</g>
						<g>
							<path style="fill:#162821;" d="M152.319,182.666c-0.05,3.256-1.913,5.868-4.161,5.834c-2.248-0.035-4.029-2.702-3.979-5.959
								c0.05-3.256,1.913-5.868,4.161-5.834C150.588,176.742,152.369,179.409,152.319,182.666z"/>
						</g>
						<path style="fill:#CA7676;" d="M144.568,200.242c0,0-0.978,7.225-10.57,7.787c-10.405,0.61-13.324-7.976-13.324-7.976
							s1.601,10.131,13.219,9.324C146.152,208.525,144.568,200.242,144.568,200.242z"/>
						<path style="fill:#162821;" d="M156.424,167.816c-0.373,2.305-2.809,1.132-7.205,0.421c-4.396-0.711-9.087-0.69-8.714-2.995
							c0.373-2.305,4.238-3.597,8.634-2.886C153.535,163.067,156.796,165.511,156.424,167.816z"/>
						<path style="fill:#162821;" d="M102.268,171.932c0.612,2.253,2.912,0.831,7.209-0.337c4.297-1.168,8.964-1.639,8.352-3.892
							c-0.612-2.253-4.592-3.132-8.889-1.964C104.643,166.907,101.656,169.68,102.268,171.932z"/>
						<path style="fill:#162821;" d="M150.421,180.835c0,0,2.468-0.819,3.55-2.134c1.99-2.419,2.773,1.605,0.887,2.883
							c-1.886,1.279-4.77,0.493-4.77,0.493L150.421,180.835z"/>
						<g>
							<g>
								<path style="fill:#162821;" d="M112.532,183.836c0.059,3.256,1.929,5.863,4.177,5.822c2.248-0.041,4.022-2.714,3.963-5.97
									c-0.059-3.256-1.929-5.863-4.177-5.822C114.247,177.907,112.473,180.58,112.532,183.836z"/>
							</g>
							<path style="fill:#162821;" d="M114.893,183.402c0,0-2.792-0.926-4.016-2.415c-2.251-2.736-3.137,1.815-1.004,3.262
								c2.134,1.447,5.396,0.558,5.396,0.558L114.893,183.402z"/>
						</g>
						<path style="fill:#EEC4BD;" d="M88.369,190.427c0,0-13.42-20.458-22.685-7.004c-9.265,13.454,9.9,34.415,24.37,15.494
							L88.369,190.427z"/>
						<path style="opacity:0.69;fill:#E4928E;" d="M84.967,194.306c-0.226-1.139-0.711-2.209-1.431-3.121
							c-2.555-3.235-8.989-9.988-13.75-3.075c-5.188,7.533,3.229,18.658,11.703,13.996C84.235,200.595,85.577,197.38,84.967,194.306
							L84.967,194.306z"/>
						<path style="fill:#FAF9FF;" d="M161.164,178.241c0,0,18.365,29.964-17.981,51.583
							C143.184,229.824,174.453,212.04,161.164,178.241z"/>
						<polygon style="fill:#CA7676;" points="102.156,222.157 102.256,244.189 95.352,251.741 103.625,244.627 103.625,222.708 
													"/>
						<path style="fill:#CA7676;" d="M85.682,203.354c0,0,6.817,23.46,38.202,28.118C123.883,231.472,95.876,223.919,85.682,203.354
							z"/>
					</g>
					<path style="fill:#D7333B;" d="M141.846,252.865c0,0-9.041,21.324-43.791-4.347l-25.596,23.584c0,0-6.738,35.671,10.575,57.186
						c0,0-24.831,47.283-19.74,90.598h157.973c0,0,6.925-63.697-42.083-102.613C179.184,317.273,195.598,280.109,141.846,252.865z"
						/>
					<path style="fill:#B21A26;" d="M194.926,333.057c6.395,33.79-30.791,58.68-62.284,53.431
						c-24.024-4.204-43.819-16.479-59.642-33.126c-6.227,17.713-12.565,42.88-9.749,66.837h157.973
						C221.224,420.199,226.534,371.337,194.926,333.057z"/>
					<path style="fill:#B21A26;" d="M98.012,248.831c0,0,17.435,13.246,32.147,12.442c0,0,7.954-1.004,11.644-8.095l2.853,1.49
						c0,0-3.398,13.696-14.522,14.141c-23.438,0.938-35.156-17.229-35.156-17.229L98.012,248.831z"/>
					<path style="fill:#162821;" d="M116.602,120.994c0,0,33.775-8.138,44.104,26.812l4.048,13.14c0,0-20.06-3.592-34.975-1.441
						c0,0-20.953-10.456-21.84-25.194c0,0-24.504,20.545-25.392,48.005c0,0-1.598,4.053-9.766-9.191
						C64.613,159.88,77.856,115.312,116.602,120.994z"/>
					<path style="fill:#EEC4BD;" d="M72.458,272.101c0,0-23.634,38.74,2.304,86.591c25.938,47.851,84.795,36.91,84.795,36.91
						l1.632-10.337c0,0-53.817-18.427-60.508-37.598c-4.583-13.131-3.558-30.871-2.458-40.745
						c0.871-7.817-0.535-15.768-4.292-22.679C89.926,276.873,83.228,270.023,72.458,272.101z"/>
					<path style="fill:#EEC4BD;" d="M153.202,392.835c-0.394-4.031,0.976-8.1,3.931-10.871c1.168-1.095,2.559-1.985,4.16-2.313
						c5.489-1.126,9.193-7.4,14.686-4.919c5.493,2.482-2.013,7.488-5.96,9.336c-3.947,1.848-1.753,6.877,6.526,7.188
						c8.279,0.311,22.672-2.698,23.159,1.117c0.487,3.815-8.769,6.079-22.664,4.258c0,0,9.954,1.524,16.9,0.582
						c6.946-0.942,8.61,0.709,8.761,2.419c0.151,1.71-10.627,5.673-27.14,3.298c0,0,12.716,2.18,20.997,0.492
						c0,0,2.943-0.111,2.133,2.346c-0.987,2.997-22.447,4.332-28.045,2.495c-3.542-1.163-7.352-3.007-10.442-4.665
						c-3.937-2.112-6.542-6.065-6.977-10.512L153.202,392.835z"/>
					<path style="fill:#D7333B;" d="M125,369.253c-11.347-6.313-21.632-13.889-24.318-21.586
						c-4.583-13.131-3.558-30.871-2.457-40.745c0.871-7.817-0.535-15.768-4.292-22.679c-4.006-7.37-10.705-14.22-21.474-12.142
						c0,0-23.634,38.74,2.304,86.591c8.772,16.183,21.31,25.636,34.063,31.068C112.416,381.917,118.848,375.569,125,369.253z"/>
					<path style="fill:#B21A26;" d="M125,369.253c0,0-23.718-8.565-27.203-26.438c-3.449-17.688-0.409-24.835-0.409-24.835
						s-1.8,16.686,5.689,31.452C107.124,357.411,114.281,362.984,125,369.253z"/>
					<circle style="fill:#B21A26;" cx="93.235" cy="279.873" r="4.37"/>
					<path style="fill:#B21A26;" d="M127.436,292.372c0,2.414-1.956,4.37-4.37,4.37c-2.414,0-4.37-1.957-4.37-4.37
						s1.957-4.37,4.37-4.37C125.479,288.002,127.436,289.959,127.436,292.372z"/>
					<path style="fill:#B21A26;" d="M116.96,329.784c0,2.414-1.957,4.37-4.37,4.37c-2.414,0-4.37-1.957-4.37-4.37
						c0-2.414,1.957-4.37,4.37-4.37C115.003,325.414,116.96,327.37,116.96,329.784z"/>
					<path style="fill:#B21A26;" d="M81.338,329.784c0,2.414-1.956,4.37-4.37,4.37c-2.414,0-4.37-1.957-4.37-4.37
						c0-2.414,1.957-4.37,4.37-4.37C79.382,325.414,81.338,327.37,81.338,329.784z"/>
					<path style="fill:#B21A26;" d="M95.592,369.738c-1.093-2.152-0.235-4.782,1.917-5.875c2.152-1.093,4.782-0.235,5.876,1.917
						c1.093,2.152,0.235,4.782-1.917,5.876C99.316,372.748,96.685,371.89,95.592,369.738z"/>
					<path style="fill:#B21A26;" d="M158.864,305.642c0,2.413-1.956,4.37-4.37,4.37c-2.414,0-4.37-1.957-4.37-4.37
						c0-2.414,1.957-4.37,4.37-4.37C156.908,301.272,158.864,303.228,158.864,305.642z"/>
					<path style="fill:#B21A26;" d="M155.545,274.806c0,2.414-1.957,4.37-4.37,4.37c-2.414,0-4.37-1.957-4.37-4.37
						s1.957-4.37,4.37-4.37C153.589,270.436,155.545,272.392,155.545,274.806z"/>
					<path style="fill:#B21A26;" d="M182.289,343.942c0,2.414-1.957,4.37-4.37,4.37c-2.414,0-4.37-1.957-4.37-4.37
						c0-2.413,1.957-4.37,4.37-4.37C180.333,339.572,182.289,341.529,182.289,343.942z"/>
					<path style="fill:#B21A26;" d="M149.851,359.018c0,2.414-1.956,4.37-4.37,4.37s-4.37-1.957-4.37-4.37s1.957-4.37,4.37-4.37
						S149.851,356.605,149.851,359.018z"/>
				</g>
				<g>
					<path style="fill:#EEC4BD;" d="M234.467,263.534c0,0,14.838,53.138-59.529,75.492l3.862,16.114c0,0,96.151-9.998,90.469-91.605
						H234.467z"/>
					<path style="fill:#EEC4BD;" d="M185.96,348.462c0.395-4.031-0.976-8.1-3.93-10.871c-1.168-1.095-2.559-1.985-4.16-2.313
						c-5.489-1.126-9.193-7.4-14.686-4.919c-5.493,2.482,2.013,7.488,5.96,9.336c3.947,1.848,1.753,6.877-6.526,7.188
						c-8.279,0.311-22.672-2.698-23.159,1.117c-0.487,3.815,8.769,6.079,22.664,4.258c0,0-9.954,1.524-16.9,0.582
						c-6.946-0.942-8.61,0.709-8.761,2.42c-0.151,1.71,10.627,5.673,27.14,3.298c0,0-12.715,2.18-20.997,0.492
						c0,0-2.943-0.111-2.133,2.346c0.987,2.997,22.447,4.332,28.045,2.494c3.542-1.163,7.352-3.007,10.442-4.665
						c3.937-2.112,6.542-6.065,6.977-10.512L185.96,348.462z"/>
				</g>
				<path style="fill:#7BA3F9;" d="M220.617,200.926c0,0,26.99-5.149,40.484,27.522c13.495,32.672,18.112,43.276,18.112,43.276
					s-34.969,17.451-53.53,5.732L220.617,200.926z"/>
				<path style="fill:#5585E0;" d="M235.304,280.975c0,0-1.967-26.025-8.36-42.361c0,0,11.351,27.311,12.512,42.82L235.304,280.975z
					"/>
				<path style="fill:#3B250E;" d="M175.971,91.892c0,0,17.49-16.085,34.409-9.791c16.919,6.294,21.724,30.561,21.724,30.561
					s0.022-35.453-21.061-41.845C183.608,62.498,175.971,91.892,175.971,91.892z"/>
				<path style="fill:#CA7676;" d="M184.066,354.355c0,0,78.046-8.325,84.344-70.113
					C268.41,284.243,269.744,331.775,184.066,354.355z"/>
			</g>
		</g>
		<rect x="51.635" y="413.72" style="fill:#C2C2C2;" width="388.699" height="6.621"/>
	</g>
</g>
</svg>
